# xmcd
#
# Track frame offsets:
#	150
#	2359
#	25809
#	54633
#	78509
#	95737
#	121693
#	146283
#	165922
#	191670
#	210882
#	243595
#
# Disc length: 3941 seconds
#
# Revision: 0
# Processed by: cddbd v1.5.2PL0 Copyright (c) Steve Scherf et al.
# Submitted via: Jack! The Knife
#
DISCID=8b0f630c
DTITLE=Gamma Ray - Land Of The Free II
DYEAR=2007
DGENRE=Heavy Metal
TTITLE0=Rising Again
TTITLE1=To Mother Earth
TTITLE2=Empress
TTITLE3=Rain
TTITLE4=Into The Storm
TTITLE5=When The World
TTITLE6=From The Ashes
TTITLE7=Leaving Hell
TTITLE8=Real World
TTITLE9=Hear Me Calling
TTITLE10=Opportunity
TTITLE11=Insurrection
EXTD=
EXTT0=
EXTT1=
EXTT2=
EXTT3=
EXTT4=
EXTT5=
EXTT6=
EXTT7=
EXTT8=
EXTT9=
EXTT10=
EXTT11=
PLAYORDER=
